<?xml version="1.0" encoding="UTF-8"?>
<svg width="174px" height="174px" viewBox="0 0 174 174" version="1.1" xmlns="http://www.w3.org/2000/svg" xmlns:xlink="http://www.w3.org/1999/xlink">
    <!-- Generator: Sketch 51.2 (57519) - http://www.bohemiancoding.com/sketch -->
    <title>支付二维码/正在分配支付码</title>
    <desc>Created with Sketch.</desc>
    <defs></defs>
    <g id="Page-1" stroke="none" stroke-width="1" fill="none" fill-rule="evenodd">
        <g id="支付二维码/正在分配支付码" transform="translate(-101.000000, -119.000000)">
            <g id="扫描" transform="translate(101.000000, 119.000000)">
                <g id="Group" transform="translate(9.000000, 15.000000)">
                    <polyline id="Rectangle-14" stroke="#DDDFE8" stroke-width="8" points="0 24 0 0 24 0"></polyline>
                    <polyline id="Rectangle-14" stroke="#DDDFE8" stroke-width="8" transform="translate(144.000000, 12.000000) rotate(-270.000000) translate(-144.000000, -12.000000) " points="132 24 132 0 156 0"></polyline>
                    <polyline id="Rectangle-14" stroke="#DDDFE8" stroke-width="8" transform="translate(12.000000, 132.000000) rotate(-90.000000) translate(-12.000000, -132.000000) " points="0 144 0 120 24 120"></polyline>
                    <polyline id="Rectangle-14" stroke="#DDDFE8" stroke-width="8" transform="translate(144.000000, 132.000000) rotate(-180.000000) translate(-144.000000, -132.000000) " points="132 144 132 120 156 120"></polyline>
                    <g id="二维码" transform="translate(23.000000, 16.000000)" fill="#DDDFE8" fill-rule="nonzero">
                        <path d="M3.43205858,8.56354437e-15 L47.8832384,8.56354437e-15 C52.399105,0.436889251 51.315297,8.30089577 51.315297,13.3929153 L51.315297,37.6929967 C51.315297,42.965798 52.3238405,49.4438111 48.7864117,50.9352606 C46.4833198,51.9144951 40.2815297,51.2214984 37.3010578,51.2214984 L13.7282343,51.2214984 C8.27908869,51.2214984 0.842961758,52.5020358 2.84217094e-14,47.8318404 L2.84217094e-14,3.38965798 C0.61716843,1.73249186 1.68592352,0.542345277 3.43205858,0 M9.55858421,10.0183225 L9.55858421,41.6701954 L41.6362897,41.6701954 L41.6362897,9.58143322 L9.7091131,9.58143322 C9.52847844,9.59649837 9.54353133,9.80741042 9.55858421,10.0183225 M63.1167616,2.84217094e-14 L107.567941,2.84217094e-14 C109.374288,0.66286645 110.623678,1.88314332 111,3.9771987 L111,47.2593648 C110.593572,49.0521173 109.64524,50.5887622 107.868999,51.0859121 C104.963792,51.8843648 100.146867,51.2365635 96.684703,51.2365635 L73.8494711,51.2365635 C70.4023596,51.2365635 65.2994304,51.9596906 62.5146461,51.0859121 C58.5707893,49.8656352 59.684703,42.2728013 59.684703,36.9548046 L59.684703,14.281759 C59.684703,8.1502443 58.3148902,0.858713355 63.1167616,3.27034816e-14 M69.2282343,10.0183225 L69.2282343,41.6701954 L101.30594,41.6701954 L101.30594,9.58143322 L69.3787632,9.58143322 C69.1981286,9.59649837 69.2131814,9.80741042 69.2282343,10.0183225 M24.174939,19.2833876 C28.6456469,18.4548046 32.1529699,21.4226384 32.2282343,25.4600977 C32.3336046,30.7780945 26.8242474,33.7007329 22.5341741,31.5012215 C17.6269325,28.985342 17.958096,20.4434039 24.174939,19.2833876 M83.8445891,19.2833876 C94.3665582,17.3399837 94.1708706,33.7911238 83.8445891,32.0887622 C77.2815297,31.0191368 77.0707893,20.5337948 83.8445891,19.2833876 M47.5972335,111 L3.58258747,111 C1.76118796,110.44259 0.526851098,109.312704 0,107.459691 L0,63.1530945 C0.436533767,61.8574919 1.43002441,60.3509772 2.98047193,59.9140879 C5.9007323,59.10057 10.672498,59.7634365 14.1647681,59.7634365 L36.9849471,59.7634365 C40.3567941,59.7634365 45.2640358,59.0252443 48.3197722,59.9140879 C52.4593165,61.1192997 51.3002441,68.5916124 51.3002441,73.894544 L51.3002441,97.3057818 C51.3303499,103.030537 52.5797396,110.487785 47.5972335,111 M9.55858421,69.781759 L9.55858421,101.433632 L41.6362897,101.433632 L41.6362897,69.3448697 L9.7091131,69.3448697 C9.52847844,69.3599349 9.54353133,69.5708469 9.55858421,69.781759 M111,63.7406352 L111,76.1091205 C110.653784,80.2821661 110.954841,85.0879479 110.849471,89.5020358 L79.0728234,89.5020358 L79.0728234,82.2858306 C76.0923515,81.9393322 72.4646054,82.2406352 69.2282343,82.1351792 C68.8820179,91.4605049 69.1830757,101.418567 69.0777055,110.984935 L63.2522376,110.984935 C58.2546786,109.990635 59.6696501,102.593648 59.6696501,96.7031759 L59.6696501,73.9096091 C59.6696501,70.4747557 58.9621644,65.3375407 59.820179,62.5806189 C60.8437754,59.2813518 65.2542718,59.7785016 69.6647681,59.7785016 L91.2957689,59.7785016 L91.2957689,79.3631922 L101.290887,79.3631922 C101.396257,72.8851792 101.095199,66.0154723 101.441416,59.7785016 C106.25834,59.4922638 110.713995,59.5675896 111,63.7406352 M24.9275834,78.9112378 C29.6993491,78.3839577 33.6432059,82.9185668 31.7917006,87.8900651 C29.2327095,94.7899023 16.9646054,92.1986971 19.2676973,83.4759772 C19.8848657,81.0655537 21.7213181,79.2577362 24.9275834,78.9112378 M89.8205858,111 L79.0728234,111 C79.1781937,107.218648 78.8771359,103.045603 79.2233523,99.5203583 L89.8205858,99.5203583 L89.8205858,111 M111,99.5203583 L111,107.022801 C110.578519,109.116857 109.344182,110.397394 107.417413,111 L99.8157038,111 C99.921074,107.218648 99.6200163,103.045603 99.9662327,99.5203583 L111,99.5203583" id="Shape"></path>
                    </g>
                </g>
            </g>
        </g>
    </g>
</svg>